<?xml version="1.0" encoding="UTF-8"?>
<svg id="a" xmlns="http://www.w3.org/2000/svg" viewBox="0 0 480 480">
    <path
        d="M474.45,391.25l-59.1-102.36c-6.36-11.01-23.2-6.5-23.2,6.22v33.15c0,2.18.57,4.33,1.67,6.22l33.98,58.85c4.78,8.29-1.2,18.65-10.77,18.65h-67.95c-2.18,0-4.33.57-6.22,1.67l-28.71,16.57c-11.01,6.36-6.5,23.2,6.22,23.2h117.64c12.37,0,24.29-5.25,32.24-14.74,11.4-13.59,12.8-32.52,4.19-47.42Z" />
    <path
        d="M368.95,215.69l-122.74-70.87c-3.85-2.22-8.59-2.22-12.43,0l-122.74,70.87c-3.85,2.22-6.22,6.32-6.22,10.77v141.72c0,4.44,2.37,8.54,6.22,10.77l122.74,70.87c3.85,2.22,8.59,2.22,12.43,0l122.74-70.87c3.85-2.22,6.22-6.32,6.22-10.77v-141.72c0-4.44-2.37-8.54-6.22-10.77ZM213.07,428.28l-93.73-54.12c-3.85-2.22-6.22-6.32-6.22-10.77v-108.23c0-9.57,10.36-15.55,18.65-10.77l93.73,54.12c3.85,2.22,6.22,6.32,6.22,10.77v108.23c0,9.57-10.36,15.55-18.65,10.77ZM140.05,208.52l93.73-54.12c3.85-2.22,8.59-2.22,12.43,0l93.73,54.12c8.29,4.78,8.29,16.75,0,21.53l-93.73,54.12c-3.85,2.22-8.59,2.22-12.43,0l-93.73-54.12c-8.29-4.78-8.29-16.75,0-21.53ZM360.66,374.16l-93.73,54.12c-8.29,4.78-18.65-1.2-18.65-10.77v-108.23c0-4.44,2.37-8.54,6.22-10.77l93.73-54.12c8.29-4.78,18.65,1.2,18.65,10.77v108.23c0,4.44-2.37,8.54-6.22,10.77Z" />
    <path
        d="M250.77,86.68l33.98,58.85c1.09,1.89,2.66,3.46,4.55,4.55l28.7,16.58c11.01,6.36,23.34-5.97,16.98-16.98l-59.09-102.36c-7.4-12.82-21.08-20.72-35.88-20.72s-28.48,7.9-35.88,20.72l-59.09,102.36c-6.36,11.01,5.97,23.34,16.98,16.98l28.7-16.58c1.89-1.09,3.46-2.66,4.55-4.55l33.98-58.85c4.78-8.29,16.75-8.29,21.53,0Z" />
    <path
        d="M52.2,393.32l33.98-58.85c1.09-1.89,1.67-4.03,1.67-6.22v-33.15c0-12.72-16.84-17.23-23.2-6.22L5.55,391.25c-7.67,13.3-7.39,29.8.86,42.87,7.69,12.16,21.3,19.28,35.69,19.28h117.52c12.72,0,17.23-16.84,6.22-23.2l-28.71-16.57c-1.89-1.09-4.03-1.67-6.22-1.67H62.97c-9.57,0-15.55-10.36-10.77-18.65Z" />
</svg>